<?xml version="1.0" standalone="no"?><svg xmlns:xlink="http://www.w3.org/1999/xlink" xmlns="http://www.w3.org/2000/svg" viewBox="0 0 100 99.99999999999999" preserveAspectRatio="none"><g transform="scale(0.16393442622950818)"><rect x="0" y="0" width="610" height="610" fill="#ffffff"/><rect x="0" y="0" width="610" height="610" fill="#ffffff"/><rect x="0" y="0" width="305" height="305" fill="#f6f6f6"/><path d="M 0 0 A 305 305 0 0 0 305 305 L 305 0" fill="#f0f0f0"/><rect x="305" y="0" width="305" height="305" fill="#858585"/><path d="M 305 305 A 305 305 0 0 0 610 0 L 305 0" fill="#959595"/><rect x="0" y="305" width="305" height="305" fill="#f8f8f8"/><path d="M 0 610 A 305 305 0 0 1  305 305 L 305 610" fill="#737373"/><rect x="305" y="305" width="305" height="305" fill="#dbdbdb"/><path d="M 305 305 A 305 305 0 0 1 610 610 L 305 610" fill="#d1d1d1"/></g></svg>