<?xml version="1.0" standalone="no"?><svg xmlns:xlink="http://www.w3.org/1999/xlink" xmlns="http://www.w3.org/2000/svg" viewBox="0 0 1440 810.013022717407" preserveAspectRatio="none"><g transform="scale(1.3022717407032267)"><rect x="0" y="0" width="1105.7777777777778" height="622" fill="#4d4d4d"/><rect x="0" y="0" width="69.11111111111111" height="69.11111111111111" fill="#4d4d4d"/><rect x="0" y="0" width="34.56" height="34.56" fill="#6bacce"/><polygon points="34.56,0 34.56,34.56 0,34.56" fill="#75cbf8"/><rect x="34.56" y="0" width="34.56" height="34.56" fill="#495054"/><polygon points="34.56,0 69.12,34.56 34.56,34.56" fill="#4c4e4f"/><rect x="0" y="34.56" width="34.56" height="34.56" fill="#4a4f52"/><polygon points="0,34.56 34.56,34.56 34.56,69.12" fill="#6393ad"/><rect x="34.56" y="34.56" width="34.56" height="34.56" fill="#485157"/><polygon points="34.56,34.56 69.12,34.56 34.56,69.12" fill="#6fb9df"/><rect x="69.11111111111111" y="0" width="69.11111111111111" height="69.11111111111111" fill="#4d4d4d"/><rect x="69.11" y="0" width="34.56" height="34.56" fill="#69a6c7"/><path d="M 69.11 0 A 34.56 34.56 0 0 0 103.67 34.56 L 103.67 0" fill="#6495af"/><rect x="103.67" y="0" width="34.56" height="34.56" fill="#525e65"/><path d="M 103.67 34.56 A 34.56 34.56 0 0 0 138.23000000000002 0 L 103.67 0" fill="#505659"/><rect x="69.11" y="34.56" width="34.56" height="34.56" fill="#365e79"/><path d="M 69.11 69.12 A 34.56 34.56 0 0 1  103.67 34.56 L 103.67 69.12" fill="#6db4d9"/><rect x="103.67" y="34.56" width="34.56" height="34.56" fill="#395c73"/><path d="M 103.67 34.56 A 34.56 34.56 0 0 1 138.23000000000002 69.12 L 103.67 69.12" fill="#69a6c6"/><rect x="138.22" y="0" width="69.11" height="69.11" fill="#3c5a6f"/><rect x="138.22" y="0" width="69.11" height="69.11" fill="#45535c"/><rect x="207.33333333333334" y="0" width="69.11111111111111" height="69.11111111111111" fill="#4d4d4d"/><rect x="207.33" y="0" width="34.56" height="34.56" fill="#6391aa"/><circle cx="224.61" cy="17.28" r="17.28" fill="#669bb8"/><rect x="241.89" y="0" width="34.56" height="34.56" fill="#4b4e50"/><rect x="241.89" y="0" width="34.56" height="34.56" fill="#669cb9"/><rect x="207.33" y="34.56" width="34.56" height="34.56" fill="#485157"/><circle cx="224.61" cy="51.84" r="17.28" fill="#54626a"/><rect x="241.89" y="34.56" width="34.56" height="34.56" fill="#628fa7"/><rect x="241.89" y="34.56" width="34.56" height="34.56" fill="#6cafd3"/><rect x="276.44444444444446" y="0" width="69.11111111111111" height="69.11111111111111" fill="#4d4d4d"/><rect x="276.44" y="0" width="34.56" height="34.56" fill="#4b4f51"/><path d="M 276.44 0 A 34.56 34.56 0 0 0 311 34.56 L 311 0" fill="#76cefc"/><rect x="311" y="0" width="34.56" height="34.56" fill="#385d76"/><path d="M 311 34.56 A 34.56 34.56 0 0 0 345.56 0 L 311 0" fill="#74c8f5"/><rect x="276.44" y="34.56" width="34.56" height="34.56" fill="#5d7f91"/><path d="M 276.44 69.12 A 34.56 34.56 0 0 1  311 34.56 L 311 69.12" fill="#6290a9"/><rect x="311" y="34.56" width="34.56" height="34.56" fill="#44545e"/><path d="M 311 34.56 A 34.56 34.56 0 0 1 345.56 69.12 L 311 69.12" fill="#6598b3"/><rect x="345.55555555555554" y="0" width="69.11111111111111" height="69.11111111111111" fill="#4d4d4d"/><rect x="345.56" y="0" width="34.56" height="34.56" fill="#46525a"/><polygon points="380.12,0 380.12,34.56 345.56,34.56" fill="#546269"/><rect x="380.11" y="0" width="34.56" height="34.56" fill="#5b7b8c"/><polygon points="380.11,0 414.67,0 380.11,34.56" fill="#405665"/><rect x="345.56" y="34.56" width="34.56" height="34.56" fill="#618ba1"/><polygon points="345.56,34.56 380.12,34.56 380.12,69.12" fill="#425561"/><rect x="380.11" y="34.56" width="34.56" height="34.56" fill="#4b4f51"/><polygon points="380.11,34.56 414.67,69.12 380.11,69.12" fill="#50565a"/><rect x="414.67" y="0" width="69.11" height="69.11" fill="#669dbb"/><polygon points="414.67,0 483.78000000000003,0 483.78000000000003,69.11" fill="#485157"/><rect x="483.7777777777778" y="0" width="69.11111111111111" height="69.11111111111111" fill="#4d4d4d"/><rect x="483.78" y="0" width="34.56" height="34.56" fill="#3d596c"/><polygon points="518.3399999999999,0 518.3399999999999,34.56 483.78,34.56" fill="#4d4d4d"/><rect x="518.33" y="0" width="34.56" height="34.56" fill="#375d77"/><polygon points="518.33,0 552.8900000000001,0 518.33,34.56" fill="#6496b0"/><rect x="483.78" y="34.56" width="34.56" height="34.56" fill="#4f5558"/><polygon points="483.78,34.56 518.3399999999999,34.56 518.3399999999999,69.12" fill="#5a7584"/><rect x="518.33" y="34.56" width="34.56" height="34.56" fill="#597482"/><polygon points="518.33,34.56 552.8900000000001,69.12 518.33,69.12" fill="#375d77"/><rect x="552.8888888888889" y="0" width="69.11111111111111" height="69.11111111111111" fill="#4d4d4d"/><rect x="552.89" y="0" width="34.56" height="34.56" fill="#55666f"/><polygon points="587.45,0 587.45,34.56 552.89,34.56" fill="#415664"/><rect x="587.44" y="0" width="34.56" height="34.56" fill="#6db4d9"/><polygon points="587.44,0 622,0 587.44,34.56" fill="#365e79"/><rect x="552.89" y="34.56" width="34.56" height="34.56" fill="#505659"/><polygon points="552.89,34.56 587.45,34.56 587.45,69.12" fill="#435460"/><rect x="587.44" y="34.56" width="34.56" height="34.56" fill="#435561"/><polygon points="587.44,34.56 622,69.12 587.44,69.12" fill="#3d596c"/><rect x="622" y="0" width="69.11111111111111" height="69.11111111111111" fill="#4d4d4d"/><rect x="622" y="0" width="34.56" height="34.56" fill="#365e79"/><polygon points="656.56,0 656.56,34.56 622,34.56" fill="#6aa7c8"/><rect x="656.56" y="0" width="34.56" height="34.56" fill="#70bde6"/><polygon points="656.56,0 691.1199999999999,34.56 656.56,34.56" fill="#6393ac"/><rect x="622" y="34.56" width="34.56" height="34.56" fill="#425562"/><polygon points="622,34.56 656.56,34.56 622,69.12" fill="#45535d"/><rect x="656.56" y="34.56" width="34.56" height="34.56" fill="#6497b1"/><polygon points="656.56,34.56 691.1199999999999,34.56 691.1199999999999,69.12" fill="#3d596c"/><rect x="691.1111111111111" y="0" width="69.11111111111111" height="69.11111111111111" fill="#4d4d4d"/><rect x="691.11" y="0" width="34.56" height="34.56" fill="#425561"/><polygon points="725.6700000000001,0 725.6700000000001,34.56 691.11,34.56" fill="#4b4f51"/><rect x="725.67" y="0" width="34.56" height="34.56" fill="#669ebb"/><polygon points="725.67,0 760.23,34.56 725.67,34.56" fill="#485157"/><rect x="691.11" y="34.56" width="34.56" height="34.56" fill="#385d76"/><polygon points="691.11,34.56 725.6700000000001,34.56 691.11,69.12" fill="#58717e"/><rect x="725.67" y="34.56" width="34.56" height="34.56" fill="#4c4e50"/><polygon points="725.67,34.56 760.23,34.56 760.23,69.12" fill="#495055"/><rect x="760.2222222222223" y="0" width="69.11111111111111" height="69.11111111111111" fill="#4d4d4d"/><rect x="760.22" y="0" width="34.56" height="34.56" fill="#425561"/><polygon points="794.78,0 794.78,34.56 760.22,34.56" fill="#435460"/><rect x="794.78" y="0" width="34.56" height="34.56" fill="#556670"/><polygon points="794.78,0 829.3399999999999,0 794.78,34.56" fill="#46525a"/><rect x="760.22" y="34.56" width="34.56" height="34.56" fill="#5b7988"/><polygon points="760.22,34.56 794.78,34.56 794.78,69.12" fill="#5a7887"/><rect x="794.78" y="34.56" width="34.56" height="34.56" fill="#5b7a8a"/><polygon points="794.78,34.56 829.3399999999999,69.12 794.78,69.12" fill="#3d596d"/><rect x="829.33" y="0" width="69.11" height="69.11" fill="#535f66"/><path d="M 829.33 0 A 69.11 69.11 0 0 1  898.44 69.11 L 829.33 0 A 69.11 69.11 0 0 0 898.44 69.11" fill="#355f7b"/><rect x="898.44" y="0" width="69.11" height="69.11" fill="#3d596c"/><rect x="898.44" y="0" width="69.11" height="69.11" fill="#5a7583"/><rect x="967.5555555555557" y="0" width="69.11111111111111" height="69.11111111111111" fill="#4d4d4d"/><rect x="967.56" y="0" width="34.56" height="34.56" fill="#405767"/><path d="M 967.56 34.56 A 34.56 34.56 0 0 1 1002.1199999999999 0 L 1002.1199999999999 8.64 A 25.92 25.92 0 0 0 976.1999999999999 34.56" fill="#415665"/><rect x="1002.11" y="0" width="34.56" height="34.56" fill="#5b7988"/><path d="M 1002.11 0 A 34.56 34.56 0 0 1 1036.67 34.56 L 1028.03 34.56 A 25.92 25.92 0 0 0 1002.11 8.64" fill="#556771"/><rect x="967.56" y="34.56" width="34.56" height="34.56" fill="#5b7a8b"/><path d="M 967.56 34.56 A 34.56 34.56 0 0 0 1002.1199999999999 69.12 L 1002.1199999999999 60.480000000000004 A 25.92 25.92 0 0 1 976.1999999999999 34.56" fill="#355f7b"/><rect x="1002.11" y="34.56" width="34.56" height="34.56" fill="#4a4f52"/><path d="M 1002.11 69.12 A 34.56 34.56 0 0 0 1036.67 34.56 L 1028.03 34.56 A 25.92 25.92 0 0 1 1002.11 60.480000000000004" fill="#3a5b73"/><rect x="1036.67" y="0" width="69.11" height="69.11" fill="#3a5b72"/><path d="M 1036.67 0 A 69.11 69.11 0 0 1 1105.78 69.11 L 1036.67 69.11" fill="#536067"/><rect x="0" y="69.11" width="69.11" height="69.11" fill="#365e79"/><polygon points="0,69.11 69.11,69.11 0,138.22" fill="#6db3d8"/><rect x="69.11" y="69.11" width="69.11" height="69.11" fill="#71c0ea"/><rect x="69.11" y="69.11" width="69.11" height="69.11" fill="#435460"/><rect x="138.22222222222223" y="69.11111111111111" width="69.11111111111111" height="69.11111111111111" fill="#4d4d4d"/><rect x="138.22" y="69.11" width="34.56" height="34.56" fill="#485157"/><polygon points="172.78,69.11 172.78,103.67 138.22,103.67" fill="#54636b"/><rect x="172.78" y="69.11" width="34.56" height="34.56" fill="#3a5b71"/><polygon points="172.78,69.11 207.34,69.11 172.78,103.67" fill="#618ca2"/><rect x="138.22" y="103.67" width="34.56" height="34.56" fill="#60899f"/><polygon points="138.22,103.67 172.78,103.67 172.78,138.23000000000002" fill="#425563"/><rect x="172.78" y="103.67" width="34.56" height="34.56" fill="#679ebc"/><polygon points="172.78,103.67 207.34,138.23000000000002 172.78,138.23000000000002" fill="#34607e"/><rect x="207.33333333333334" y="69.11111111111111" width="69.11111111111111" height="69.11111111111111" fill="#4d4d4d"/><rect x="207.33" y="69.11" width="34.56" height="34.56" fill="#435561"/><polygon points="241.89000000000001,69.11 241.89000000000001,103.67 207.33,103.67" fill="#628fa7"/><rect x="241.89" y="69.11" width="34.56" height="34.56" fill="#576c77"/><polygon points="241.89,69.11 276.45,103.67 241.89,103.67" fill="#71bee6"/><rect x="207.33" y="103.67" width="34.56" height="34.56" fill="#566a75"/><polygon points="207.33,103.67 241.89000000000001,103.67 207.33,138.23000000000002" fill="#435561"/><rect x="241.89" y="103.67" width="34.56" height="34.56" fill="#566b75"/><polygon points="241.89,103.67 276.45,103.67 276.45,138.23000000000002" fill="#415664"/><rect x="276.44444444444446" y="69.11111111111111" width="69.11111111111111" height="69.11111111111111" fill="#4d4d4d"/><rect x="276.44" y="69.11" width="34.56" height="34.56" fill="#4e5152"/><path d="M 276.44 103.67 A 34.56 34.56 0 0 1  311 69.11 L 311 103.67" fill="#5e8498"/><rect x="311" y="69.11" width="34.56" height="34.56" fill="#6cafd3"/><path d="M 311 69.11 A 34.56 34.56 0 0 1 345.56 103.67 L 311 103.67" fill="#4e5253"/><rect x="276.44" y="103.67" width="34.56" height="34.56" fill="#3f5768"/><path d="M 276.44 103.67 A 34.56 34.56 0 0 0 311 138.23000000000002 L 311 103.67" fill="#73c6f2"/><rect x="311" y="103.67" width="34.56" height="34.56" fill="#44545f"/><path d="M 311 138.23000000000002 A 34.56 34.56 0 0 0 345.56 103.67 L 311 103.67" fill="#385d76"/><rect x="345.55555555555554" y="69.11111111111111" width="69.11111111111111" height="69.11111111111111" fill="#4d4d4d"/><rect x="345.56" y="69.11" width="34.56" height="34.56" fill="#395c73"/><polygon points="380.12,69.11 380.12,103.67 345.56,103.67" fill="#3f5767"/><rect x="380.11" y="69.11" width="34.56" height="34.56" fill="#3d596c"/><polygon points="380.11,69.11 414.67,103.67 380.11,103.67" fill="#415664"/><rect x="345.56" y="103.67" width="34.56" height="34.56" fill="#385c75"/><polygon points="345.56,103.67 380.12,103.67 380.12,138.23000000000002" fill="#608aa0"/><rect x="380.11" y="103.67" width="34.56" height="34.56" fill="#6393ac"/><polygon points="380.11,103.67 414.67,103.67 380.11,138.23000000000002" fill="#4b4f52"/><rect x="414.6666666666667" y="69.11111111111111" width="69.11111111111111" height="69.11111111111111" fill="#4d4d4d"/><rect x="414.67" y="69.11" width="34.56" height="34.56" fill="#375d77"/><circle cx="431.95000000000005" cy="86.39" r="17.28" fill="#405665"/><rect x="449.22" y="69.11" width="34.56" height="34.56" fill="#6495af"/><rect x="449.22" y="69.11" width="34.56" height="34.56" fill="#5e8497"/><rect x="414.67" y="103.67" width="34.56" height="34.56" fill="#566a74"/><circle cx="431.95000000000005" cy="120.95" r="17.28" fill="#4d4e4e"/><rect x="449.22" y="103.67" width="34.56" height="34.56" fill="#6496b1"/><rect x="449.22" y="103.67" width="34.56" height="34.56" fill="#4d4e4e"/><rect x="483.7777777777778" y="69.11111111111111" width="69.11111111111111" height="69.11111111111111" fill="#4d4d4d"/><rect x="483.78" y="69.11" width="34.56" height="34.56" fill="#6cb0d4"/><polygon points="518.3399999999999,69.11 518.3399999999999,103.67 483.78,103.67" fill="#72c3ee"/><rect x="518.33" y="69.11" width="34.56" height="34.56" fill="#70bce4"/><polygon points="518.33,69.11 552.8900000000001,69.11 518.33,103.67" fill="#75ccfa"/><rect x="483.78" y="103.67" width="34.56" height="34.56" fill="#44535e"/><polygon points="483.78,103.67 518.3399999999999,103.67 518.3399999999999,138.23000000000002" fill="#73c5f0"/><rect x="518.33" y="103.67" width="34.56" height="34.56" fill="#385d76"/><polygon points="518.33,103.67 552.8900000000001,138.23000000000002 518.33,138.23000000000002" fill="#6393ad"/><rect x="552.89" y="69.11" width="69.11" height="69.11" fill="#597280"/><rect x="552.89" y="69.11" width="69.11" height="69.11" fill="#5e8498"/><rect x="622" y="69.11111111111111" width="69.11111111111111" height="69.11111111111111" fill="#4d4d4d"/><rect x="622" y="69.11" width="34.56" height="34.56" fill="#669cb9"/><circle cx="639.28" cy="86.39" r="17.28" fill="#4e5152"/><rect x="656.56" y="69.11" width="34.56" height="34.56" fill="#54626a"/><rect x="656.56" y="69.11" width="34.56" height="34.56" fill="#60889d"/><rect x="622" y="103.67" width="34.56" height="34.56" fill="#3e586a"/><circle cx="639.28" cy="120.95" r="17.28" fill="#3e5869"/><rect x="656.56" y="103.67" width="34.56" height="34.56" fill="#72c4ef"/><rect x="656.56" y="103.67" width="34.56" height="34.56" fill="#345f7d"/><rect x="691.11" y="69.11" width="69.11" height="69.11" fill="#505559"/><path d="M 691.11 138.22 A 69.11 69.11 0 0 0 760.22 69.11 L 691.11 69.11" fill="#5a7786"/><rect x="760.22" y="69.11" width="69.11" height="69.11" fill="#60889d"/><rect x="760.22" y="69.11" width="69.11" height="69.11" fill="#5d8092"/><rect x="829.33" y="69.11" width="69.11" height="69.11" fill="#336180"/><path d="M 829.33 69.11 A 69.11 69.11 0 0 1 898.44 138.22 L 829.33 138.22" fill="#556871"/><rect x="898.4444444444445" y="69.11111111111111" width="69.11111111111111" height="69.11111111111111" fill="#4d4d4d"/><rect x="898.44" y="69.11" width="34.56" height="34.56" fill="#5e8397"/><polygon points="933,69.11 933,103.67 898.44,103.67" fill="#485157"/><rect x="933" y="69.11" width="34.56" height="34.56" fill="#405666"/><polygon points="933,69.11 967.56,69.11 933,103.67" fill="#50575a"/><rect x="898.44" y="103.67" width="34.56" height="34.56" fill="#6290a8"/><polygon points="898.44,103.67 933,103.67 933,138.23000000000002" fill="#415664"/><rect x="933" y="103.67" width="34.56" height="34.56" fill="#6290a9"/><polygon points="933,103.67 967.56,138.23000000000002 933,138.23000000000002" fill="#536168"/><rect x="967.5555555555557" y="69.11111111111111" width="69.11111111111111" height="69.11111111111111" fill="#4d4d4d"/><rect x="967.56" y="69.11" width="34.56" height="34.56" fill="#3e5869"/><path d="M 967.56 103.67 A 34.56 34.56 0 0 1  1002.1199999999999 69.11 L 1002.1199999999999 103.67" fill="#597380"/><rect x="1002.11" y="69.11" width="34.56" height="34.56" fill="#326181"/><path d="M 1002.11 69.11 A 34.56 34.56 0 0 1 1036.67 103.67 L 1002.11 103.67" fill="#6fb9e0"/><rect x="967.56" y="103.67" width="34.56" height="34.56" fill="#355f7c"/><path d="M 967.56 103.67 A 34.56 34.56 0 0 0 1002.1199999999999 138.23000000000002 L 1002.1199999999999 103.67" fill="#475158"/><rect x="1002.11" y="103.67" width="34.56" height="34.56" fill="#3c5a6f"/><path d="M 1002.11 138.23000000000002 A 34.56 34.56 0 0 0 1036.67 103.67 L 1002.11 103.67" fill="#435561"/><rect x="1036.6666666666667" y="69.11111111111111" width="69.11111111111111" height="69.11111111111111" fill="#4d4d4d"/><rect x="1036.67" y="69.11" width="34.56" height="34.56" fill="#6598b3"/><circle cx="1053.95" cy="86.39" r="17.28" fill="#485156"/><rect x="1071.22" y="69.11" width="34.56" height="34.56" fill="#4a4f53"/><rect x="1071.22" y="69.11" width="34.56" height="34.56" fill="#535e65"/><rect x="1036.67" y="103.67" width="34.56" height="34.56" fill="#395c74"/><circle cx="1053.95" cy="120.95" r="17.28" fill="#485157"/><rect x="1071.22" y="103.67" width="34.56" height="34.56" fill="#6497b2"/><rect x="1071.22" y="103.67" width="34.56" height="34.56" fill="#485056"/><rect x="0" y="138.22" width="69.11" height="69.11" fill="#395c74"/><polygon points="0,138.22 69.11,138.22 0,207.32999999999998" fill="#3b5a70"/><rect x="69.11" y="138.22" width="69.11" height="69.11" fill="#6cb0d3"/><rect x="69.11" y="138.22" width="69.11" height="69.11" fill="#576c77"/><rect x="138.22" y="138.22" width="69.11" height="69.11" fill="#3c5a6e"/><rect x="138.22" y="138.22" width="69.11" height="69.11" fill="#45535c"/><rect x="207.33" y="138.22" width="69.11" height="69.11" fill="#395c73"/><polygon points="276.44,138.22 276.44,207.32999999999998 207.33,207.32999999999998" fill="#75cbf9"/><rect x="276.44444444444446" y="138.22222222222223" width="69.11111111111111" height="69.11111111111111" fill="#4d4d4d"/><rect x="276.44" y="138.22" width="34.56" height="34.56" fill="#3a5b72"/><path d="M 276.44 138.22 A 34.56 34.56 0 0 0 311 172.78 L 311 138.22" fill="#4a4f53"/><rect x="311" y="138.22" width="34.56" height="34.56" fill="#6eb7dd"/><path d="M 311 172.78 A 34.56 34.56 0 0 0 345.56 138.22 L 311 138.22" fill="#6aa8c9"/><rect x="276.44" y="172.78" width="34.56" height="34.56" fill="#628fa7"/><path d="M 276.44 207.34 A 34.56 34.56 0 0 1  311 172.78 L 311 207.34" fill="#395c74"/><rect x="311" y="172.78" width="34.56" height="34.56" fill="#51585d"/><path d="M 311 172.78 A 34.56 34.56 0 0 1 345.56 207.34 L 311 207.34" fill="#556770"/><rect x="345.55555555555554" y="138.22222222222223" width="69.11111111111111" height="69.11111111111111" fill="#4d4d4d"/><rect x="345.56" y="138.22" width="34.56" height="34.56" fill="#3c5a6e"/><path d="M 345.56 172.78 A 34.56 34.56 0 0 0 380.12 138.22 L 345.56 138.22" fill="#365e7a"/><rect x="380.11" y="138.22" width="34.56" height="34.56" fill="#618da4"/><path d="M 380.11 138.22 A 34.56 34.56 0 0 0 414.67 172.78 L 414.67 138.22" fill="#355e7a"/><rect x="345.56" y="172.78" width="34.56" height="34.56" fill="#556871"/><path d="M 345.56 172.78 A 34.56 34.56 0 0 1 380.12 207.34 L 345.56 207.34" fill="#576e79"/><rect x="380.11" y="172.78" width="34.56" height="34.56" fill="#3b5b70"/><path d="M 380.11 207.34 A 34.56 34.56 0 0 1  414.67 172.78 L 414.67 207.34" fill="#46525b"/><rect x="414.67" y="138.22" width="69.11" height="69.11" fill="#355f7b"/><path d="M 414.67 207.32999999999998 A 69.11 69.11 0 0 1  483.78000000000003 138.22 L 414.67 207.32999999999998 A 69.11 69.11 0 0 0 483.78000000000003 138.22" fill="#525c61"/><rect x="483.7777777777778" y="138.22222222222223" width="69.11111111111111" height="69.11111111111111" fill="#4d4d4d"/><rect x="483.78" y="138.22" width="34.56" height="34.56" fill="#3c5a6e"/><polygon points="518.3399999999999,138.22 518.3399999999999,172.78 483.78,172.78" fill="#5c7d8e"/><rect x="518.33" y="138.22" width="34.56" height="34.56" fill="#3f5868"/><polygon points="518.33,138.22 552.8900000000001,172.78 518.33,172.78" fill="#425562"/><rect x="483.78" y="172.78" width="34.56" height="34.56" fill="#6fb9e1"/><polygon points="483.78,172.78 518.3399999999999,172.78 518.3399999999999,207.34" fill="#43545f"/><rect x="518.33" y="172.78" width="34.56" height="34.56" fill="#355f7b"/><polygon points="518.33,172.78 552.8900000000001,172.78 518.33,207.34" fill="#4c4e4f"/><rect x="552.8888888888889" y="138.22222222222223" width="69.11111111111111" height="69.11111111111111" fill="#4d4d4d"/><rect x="552.89" y="138.22" width="34.56" height="34.56" fill="#3c5a6f"/><polygon points="587.45,138.22 587.45,172.78 552.89,172.78" fill="#385c74"/><rect x="587.44" y="138.22" width="34.56" height="34.56" fill="#58707d"/><polygon points="587.44,138.22 622,138.22 587.44,172.78" fill="#5d8092"/><rect x="552.89" y="172.78" width="34.56" height="34.56" fill="#72c1ec"/><polygon points="552.89,172.78 587.45,172.78 587.45,207.34" fill="#69a6c6"/><rect x="587.44" y="172.78" width="34.56" height="34.56" fill="#5f879c"/><polygon points="587.44,172.78 622,207.34 587.44,207.34" fill="#45535c"/><rect x="622" y="138.22" width="69.11" height="69.11" fill="#345f7d"/><rect x="622" y="138.22" width="69.11" height="69.11" fill="#4d4d4d"/><rect x="691.11" y="138.22" width="69.11" height="69.11" fill="#4a5054"/><polygon points="691.11,138.22 760.22,207.32999999999998 691.11,207.32999999999998" fill="#4c4e4e"/><rect x="760.2222222222223" y="138.22222222222223" width="69.11111111111111" height="69.11111111111111" fill="#4d4d4d"/><rect x="760.22" y="138.22" width="34.56" height="34.56" fill="#5b7888"/><path d="M 760.22 138.22 A 34.56 34.56 0 0 1 794.78 172.78 L 760.22 172.78" fill="#535e65"/><rect x="794.78" y="138.22" width="34.56" height="34.56" fill="#33607f"/><path d="M 794.78 172.78 A 34.56 34.56 0 0 1  829.3399999999999 138.22 L 829.3399999999999 172.78" fill="#525d63"/><rect x="760.22" y="172.78" width="34.56" height="34.56" fill="#505659"/><path d="M 760.22 207.34 A 34.56 34.56 0 0 0 794.78 172.78 L 760.22 172.78" fill="#6599b4"/><rect x="794.78" y="172.78" width="34.56" height="34.56" fill="#556770"/><path d="M 794.78 172.78 A 34.56 34.56 0 0 0 829.3399999999999 207.34 L 829.3399999999999 172.78" fill="#33607f"/><rect x="829.3333333333334" y="138.22222222222223" width="69.11111111111111" height="69.11111111111111" fill="#4d4d4d"/><rect x="829.33" y="138.22" width="34.56" height="34.56" fill="#5f879c"/><path d="M 829.33 138.22 A 34.56 34.56 0 0 1 863.8900000000001 172.78 L 829.33 172.78" fill="#3f5767"/><rect x="863.89" y="138.22" width="34.56" height="34.56" fill="#365e7a"/><path d="M 863.89 172.78 A 34.56 34.56 0 0 1  898.45 138.22 L 898.45 172.78" fill="#3e5869"/><rect x="829.33" y="172.78" width="34.56" height="34.56" fill="#47525a"/><path d="M 829.33 207.34 A 34.56 34.56 0 0 0 863.8900000000001 172.78 L 829.33 172.78" fill="#5a7787"/><rect x="863.89" y="172.78" width="34.56" height="34.56" fill="#669cb9"/><path d="M 863.89 172.78 A 34.56 34.56 0 0 0 898.45 207.34 L 898.45 172.78" fill="#5b7888"/><rect x="898.4444444444445" y="138.22222222222223" width="69.11111111111111" height="69.11111111111111" fill="#4d4d4d"/><rect x="898.44" y="138.22" width="34.56" height="34.56" fill="#6fb7de"/><polygon points="933,138.22 933,172.78 898.44,172.78" fill="#74c9f6"/><rect x="933" y="138.22" width="34.56" height="34.56" fill="#44545e"/><polygon points="933,138.22 967.56,138.22 933,172.78" fill="#4b4f52"/><rect x="898.44" y="172.78" width="34.56" height="34.56" fill="#495055"/><polygon points="898.44,172.78 933,172.78 933,207.34" fill="#535f65"/><rect x="933" y="172.78" width="34.56" height="34.56" fill="#395c73"/><polygon points="933,172.78 967.56,207.34 933,207.34" fill="#3b5b70"/><rect x="967.56" y="138.22" width="69.11" height="69.11" fill="#71bee7"/><polygon points="1036.6699999999998,138.22 1036.6699999999998,207.32999999999998 967.56,207.32999999999998" fill="#5f879c"/><rect x="1036.67" y="138.22" width="69.11" height="69.11" fill="#618ca3"/><path d="M 1036.67 138.22 A 69.11 69.11 0 0 1 1105.78 207.32999999999998 L 1036.67 207.32999999999998" fill="#475159"/><rect x="0" y="207.33333333333334" width="69.11111111111111" height="69.11111111111111" fill="#4d4d4d"/><rect x="0" y="207.33" width="34.56" height="34.56" fill="#475259"/><polygon points="34.56,207.33 34.56,241.89000000000001 0,241.89000000000001" fill="#326180"/><rect x="34.56" y="207.33" width="34.56" height="34.56" fill="#75cbf8"/><polygon points="34.56,207.33 69.12,241.89000000000001 34.56,241.89000000000001" fill="#385c75"/><rect x="0" y="241.89" width="34.56" height="34.56" fill="#4c4e4f"/><polygon points="0,241.89 34.56,241.89 0,276.45" fill="#669ebb"/><rect x="34.56" y="241.89" width="34.56" height="34.56" fill="#566b75"/><polygon points="34.56,241.89 69.12,241.89 69.12,276.45" fill="#365e79"/><rect x="69.11" y="207.33" width="69.11" height="69.11" fill="#628fa7"/><polygon points="69.11,207.33 138.22,207.33 69.11,276.44" fill="#405665"/><rect x="138.22222222222223" y="207.33333333333334" width="69.11111111111111" height="69.11111111111111" fill="#4d4d4d"/><rect x="138.22" y="207.33" width="34.56" height="34.56" fill="#6aaacc"/><path d="M 138.22 207.33 A 34.56 34.56 0 0 0 172.78 241.89000000000001 L 172.78 207.33" fill="#5a7584"/><rect x="172.78" y="207.33" width="34.56" height="34.56" fill="#525d62"/><path d="M 172.78 241.89000000000001 A 34.56 34.56 0 0 0 207.34 207.33 L 172.78 207.33" fill="#68a1c0"/><rect x="138.22" y="241.89" width="34.56" height="34.56" fill="#3c5a6e"/><path d="M 138.22 276.45 A 34.56 34.56 0 0 1  172.78 241.89 L 172.78 276.45" fill="#50575a"/><rect x="172.78" y="241.89" width="34.56" height="34.56" fill="#485157"/><path d="M 172.78 241.89 A 34.56 34.56 0 0 1 207.34 276.45 L 172.78 276.45" fill="#3d596c"/><rect x="207.33" y="207.33" width="69.11" height="69.11" fill="#46535b"/><polygon points="207.33,207.33 276.44,276.44 207.33,276.44" fill="#6eb4da"/><rect x="276.44444444444446" y="207.33333333333334" width="69.11111111111111" height="69.11111111111111" fill="#4d4d4d"/><rect x="276.44" y="207.33" width="34.56" height="34.56" fill="#4d4d4e"/><path d="M 276.44 241.89000000000001 A 34.56 34.56 0 0 1 311 207.33 L 311 215.97000000000003 A 25.92 25.92 0 0 0 285.08 241.89000000000001" fill="#6caed1"/><rect x="311" y="207.33" width="34.56" height="34.56" fill="#33607f"/><path d="M 311 207.33 A 34.56 34.56 0 0 1 345.56 241.89000000000001 L 336.92 241.89000000000001 A 25.92 25.92 0 0 0 311 215.97000000000003" fill="#4f5355"/><rect x="276.44" y="241.89" width="34.56" height="34.56" fill="#355f7b"/><path d="M 276.44 241.89 A 34.56 34.56 0 0 0 311 276.45 L 311 267.81 A 25.92 25.92 0 0 1 285.08 241.89" fill="#45535c"/><rect x="311" y="241.89" width="34.56" height="34.56" fill="#425561"/><path d="M 311 276.45 A 34.56 34.56 0 0 0 345.56 241.89 L 336.92 241.89 A 25.92 25.92 0 0 1 311 267.81" fill="#4b4e50"/><rect x="345.56" y="207.33" width="69.11" height="69.11" fill="#4c4e4f"/><polygon points="414.67,207.33 414.67,276.44 345.56,276.44" fill="#4c4d4e"/><rect x="414.6666666666667" y="207.33333333333334" width="69.11111111111111" height="69.11111111111111" fill="#4d4d4d"/><rect x="414.67" y="207.33" width="34.56" height="34.56" fill="#3f5869"/><path d="M 414.67 241.89000000000001 A 34.56 34.56 0 0 1  449.23 207.33 L 449.23 241.89000000000001" fill="#3d596c"/><rect x="449.22" y="207.33" width="34.56" height="34.56" fill="#566a75"/><path d="M 449.22 207.33 A 34.56 34.56 0 0 1 483.78000000000003 241.89000000000001 L 449.22 241.89000000000001" fill="#326180"/><rect x="414.67" y="241.89" width="34.56" height="34.56" fill="#415664"/><path d="M 414.67 241.89 A 34.56 34.56 0 0 0 449.23 276.45 L 449.23 241.89" fill="#6fb9e1"/><rect x="449.22" y="241.89" width="34.56" height="34.56" fill="#405767"/><path d="M 449.22 276.45 A 34.56 34.56 0 0 0 483.78000000000003 241.89 L 449.22 241.89" fill="#3a5b72"/><rect x="483.7777777777778" y="207.33333333333334" width="69.11111111111111" height="69.11111111111111" fill="#4d4d4d"/><rect x="483.78" y="207.33" width="34.56" height="34.56" fill="#3e5869"/><path d="M 483.78 207.33 A 34.56 34.56 0 0 0 518.3399999999999 241.89000000000001 L 518.3399999999999 207.33" fill="#6496b1"/><rect x="518.33" y="207.33" width="34.56" height="34.56" fill="#355f7b"/><path d="M 518.33 241.89000000000001 A 34.56 34.56 0 0 0 552.8900000000001 207.33 L 518.33 207.33" fill="#375d77"/><rect x="483.78" y="241.89" width="34.56" height="34.56" fill="#4a5054"/><path d="M 483.78 276.45 A 34.56 34.56 0 0 1  518.3399999999999 241.89 L 518.3399999999999 276.45" fill="#586e7a"/><rect x="518.33" y="241.89" width="34.56" height="34.56" fill="#4b4e51"/><path d="M 518.33 241.89 A 34.56 34.56 0 0 1 552.8900000000001 276.45 L 518.33 276.45" fill="#405666"/><rect x="552.8888888888889" y="207.33333333333334" width="69.11111111111111" height="69.11111111111111" fill="#4d4d4d"/><rect x="552.89" y="207.33" width="34.56" height="34.56" fill="#395c73"/><circle cx="570.17" cy="224.61" r="17.28" fill="#556670"/><rect x="587.44" y="207.33" width="34.56" height="34.56" fill="#4c4e4f"/><rect x="587.44" y="207.33" width="34.56" height="34.56" fill="#50575a"/><rect x="552.89" y="241.89" width="34.56" height="34.56" fill="#3b5a6f"/><circle cx="570.17" cy="259.16999999999996" r="17.28" fill="#44535e"/><rect x="587.44" y="241.89" width="34.56" height="34.56" fill="#44535d"/><rect x="587.44" y="241.89" width="34.56" height="34.56" fill="#5f889d"/><rect x="622" y="207.33333333333334" width="69.11111111111111" height="69.11111111111111" fill="#4d4d4d"/><rect x="622" y="207.33" width="34.56" height="34.56" fill="#6eb7dd"/><path d="M 622 241.89000000000001 A 34.56 34.56 0 0 1  656.56 207.33 L 656.56 241.89000000000001" fill="#4f5558"/><rect x="656.56" y="207.33" width="34.56" height="34.56" fill="#55656e"/><path d="M 656.56 207.33 A 34.56 34.56 0 0 1 691.1199999999999 241.89000000000001 L 656.56 241.89000000000001" fill="#51585c"/><rect x="622" y="241.89" width="34.56" height="34.56" fill="#3f5767"/><path d="M 622 241.89 A 34.56 34.56 0 0 0 656.56 276.45 L 656.56 241.89" fill="#71bfe8"/><rect x="656.56" y="241.89" width="34.56" height="34.56" fill="#4d4d4e"/><path d="M 656.56 276.45 A 34.56 34.56 0 0 0 691.1199999999999 241.89 L 656.56 241.89" fill="#485056"/><rect x="691.1111111111111" y="207.33333333333334" width="69.11111111111111" height="69.11111111111111" fill="#4d4d4d"/><rect x="691.11" y="207.33" width="34.56" height="34.56" fill="#4c4e4f"/><polygon points="725.6700000000001,207.33 725.6700000000001,241.89000000000001 691.11,241.89000000000001" fill="#3c5a6e"/><rect x="725.67" y="207.33" width="34.56" height="34.56" fill="#3f5768"/><polygon points="725.67,207.33 760.23,241.89000000000001 725.67,241.89000000000001" fill="#73c6f2"/><rect x="691.11" y="241.89" width="34.56" height="34.56" fill="#628ea6"/><polygon points="691.11,241.89 725.6700000000001,241.89 725.6700000000001,276.45" fill="#33607f"/><rect x="725.67" y="241.89" width="34.56" height="34.56" fill="#71c1ea"/><polygon points="725.67,241.89 760.23,241.89 725.67,276.45" fill="#6cafd2"/><rect x="760.2222222222223" y="207.33333333333334" width="69.11111111111111" height="69.11111111111111" fill="#4d4d4d"/><rect x="760.22" y="207.33" width="34.56" height="34.56" fill="#54626a"/><path d="M 760.22 207.33 A 34.56 34.56 0 0 1 794.78 241.89000000000001 L 760.22 241.89000000000001" fill="#34607e"/><rect x="794.78" y="207.33" width="34.56" height="34.56" fill="#425563"/><path d="M 794.78 241.89000000000001 A 34.56 34.56 0 0 1  829.3399999999999 207.33 L 829.3399999999999 241.89000000000001" fill="#618ba1"/><rect x="760.22" y="241.89" width="34.56" height="34.56" fill="#5a7786"/><path d="M 760.22 276.45 A 34.56 34.56 0 0 0 794.78 241.89 L 760.22 241.89" fill="#4e5153"/><rect x="794.78" y="241.89" width="34.56" height="34.56" fill="#659ab6"/><path d="M 794.78 241.89 A 34.56 34.56 0 0 0 829.3399999999999 276.45 L 829.3399999999999 241.89" fill="#5e8397"/><rect x="829.33" y="207.33" width="69.11" height="69.11" fill="#6497b2"/><polygon points="829.33,207.33 898.44,207.33 898.44,276.44" fill="#628fa8"/><rect x="898.4444444444445" y="207.33333333333334" width="69.11111111111111" height="69.11111111111111" fill="#4d4d4d"/><rect x="898.44" y="207.33" width="34.56" height="34.56" fill="#50565a"/><path d="M 898.44 241.89000000000001 A 34.56 34.56 0 0 0 933 207.33 L 898.44 207.33" fill="#326180"/><rect x="933" y="207.33" width="34.56" height="34.56" fill="#3d596b"/><path d="M 933 207.33 A 34.56 34.56 0 0 0 967.56 241.89000000000001 L 967.56 207.33" fill="#618ea5"/><rect x="898.44" y="241.89" width="34.56" height="34.56" fill="#54646c"/><path d="M 898.44 241.89 A 34.56 34.56 0 0 1 933 276.45 L 898.44 276.45" fill="#628fa7"/><rect x="933" y="241.89" width="34.56" height="34.56" fill="#45535d"/><path d="M 933 276.45 A 34.56 34.56 0 0 1  967.56 241.89 L 967.56 276.45" fill="#597381"/><rect x="967.5555555555557" y="207.33333333333334" width="69.11111111111111" height="69.11111111111111" fill="#4d4d4d"/><rect x="967.56" y="207.33" width="34.56" height="34.56" fill="#515a5f"/><path d="M 967.56 241.89000000000001 A 34.56 34.56 0 0 0 1002.1199999999999 207.33 L 967.56 207.33" fill="#435460"/><rect x="1002.11" y="207.33" width="34.56" height="34.56" fill="#71c0ea"/><path d="M 1002.11 207.33 A 34.56 34.56 0 0 0 1036.67 241.89000000000001 L 1036.67 207.33" fill="#60889e"/><rect x="967.56" y="241.89" width="34.56" height="34.56" fill="#6db2d6"/><path d="M 967.56 241.89 A 34.56 34.56 0 0 1 1002.1199999999999 276.45 L 967.56 276.45" fill="#485156"/><rect x="1002.11" y="241.89" width="34.56" height="34.56" fill="#3d596c"/><path d="M 1002.11 276.45 A 34.56 34.56 0 0 1  1036.67 241.89 L 1036.67 276.45" fill="#405767"/><rect x="1036.67" y="207.33" width="69.11" height="69.11" fill="#3d596b"/><rect x="1036.67" y="207.33" width="69.11" height="69.11" fill="#3e5869"/><rect x="0" y="276.44444444444446" width="69.11111111111111" height="69.11111111111111" fill="#4d4d4d"/><rect x="0" y="276.44" width="34.56" height="34.56" fill="#5e8397"/><path d="M 0 311 A 34.56 34.56 0 0 0 34.56 276.44 L 0 276.44" fill="#72c2ec"/><rect x="34.56" y="276.44" width="34.56" height="34.56" fill="#3d596b"/><path d="M 34.56 276.44 A 34.56 34.56 0 0 0 69.12 311 L 69.12 276.44" fill="#3a5b72"/><rect x="0" y="311" width="34.56" height="34.56" fill="#46525a"/><path d="M 0 311 A 34.56 34.56 0 0 1 34.56 345.56 L 0 345.56" fill="#74c9f6"/><rect x="34.56" y="311" width="34.56" height="34.56" fill="#3d596b"/><path d="M 34.56 345.56 A 34.56 34.56 0 0 1  69.12 311 L 69.12 345.56" fill="#68a4c4"/><rect x="69.11" y="276.44" width="69.11" height="69.11" fill="#597481"/><path d="M 69.11 345.55 A 69.11 69.11 0 0 0 138.22 276.44 L 69.11 276.44" fill="#45535d"/><rect x="138.22222222222223" y="276.44444444444446" width="69.11111111111111" height="69.11111111111111" fill="#4d4d4d"/><rect x="138.22" y="276.44" width="34.56" height="34.56" fill="#4b4e50"/><polygon points="172.78,276.44 172.78,311 138.22,311" fill="#68a2c1"/><rect x="172.78" y="276.44" width="34.56" height="34.56" fill="#5a7786"/><polygon points="172.78,276.44 207.34,311 172.78,311" fill="#405767"/><rect x="138.22" y="311" width="34.56" height="34.56" fill="#5c7d8e"/><polygon points="138.22,311 172.78,311 138.22,345.56" fill="#3b5b70"/><rect x="172.78" y="311" width="34.56" height="34.56" fill="#73c4ef"/><polygon points="172.78,311 207.34,311 207.34,345.56" fill="#415665"/><rect x="207.33" y="276.44" width="69.11" height="69.11" fill="#365e7a"/><polygon points="207.33,276.44 276.44,276.44 207.33,345.55" fill="#3c5a6e"/><rect x="276.44" y="276.44" width="69.11" height="69.11" fill="#6fb8df"/><polygon points="276.44,276.44 345.55,276.44 345.55,345.55" fill="#4a4f52"/><rect x="345.55555555555554" y="276.44444444444446" width="69.11111111111111" height="69.11111111111111" fill="#4d4d4d"/><rect x="345.56" y="276.44" width="34.56" height="34.56" fill="#485156"/><polygon points="380.12,276.44 380.12,311 345.56,311" fill="#3e586a"/><rect x="380.11" y="276.44" width="34.56" height="34.56" fill="#6599b4"/><polygon points="380.11,276.44 414.67,311 380.11,311" fill="#6495b0"/><rect x="345.56" y="311" width="34.56" height="34.56" fill="#485056"/><polygon points="345.56,311 380.12,311 345.56,345.56" fill="#60889d"/><rect x="380.11" y="311" width="34.56" height="34.56" fill="#536067"/><polygon points="380.11,311 414.67,311 414.67,345.56" fill="#566b75"/><rect x="414.67" y="276.44" width="69.11" height="69.11" fill="#4b4f51"/><path d="M 414.67 345.55 A 69.11 69.11 0 0 0 483.78000000000003 276.44 L 414.67 276.44" fill="#556771"/><rect x="483.7777777777778" y="276.44444444444446" width="69.11111111111111" height="69.11111111111111" fill="#4d4d4d"/><rect x="483.78" y="276.44" width="34.56" height="34.56" fill="#495055"/><path d="M 483.78 311 A 34.56 34.56 0 0 0 518.3399999999999 276.44 L 483.78 276.44" fill="#6394ae"/><rect x="518.33" y="276.44" width="34.56" height="34.56" fill="#4b4e50"/><path d="M 518.33 276.44 A 34.56 34.56 0 0 0 552.8900000000001 311 L 552.8900000000001 276.44" fill="#355f7b"/><rect x="483.78" y="311" width="34.56" height="34.56" fill="#4c4e4f"/><path d="M 483.78 311 A 34.56 34.56 0 0 1 518.3399999999999 345.56 L 483.78 345.56" fill="#75cbf9"/><rect x="518.33" y="311" width="34.56" height="34.56" fill="#69a6c7"/><path d="M 518.33 345.56 A 34.56 34.56 0 0 1  552.8900000000001 311 L 552.8900000000001 345.56" fill="#576b76"/><rect x="552.8888888888889" y="276.44444444444446" width="69.11111111111111" height="69.11111111111111" fill="#4d4d4d"/><rect x="552.89" y="276.44" width="34.56" height="34.56" fill="#72c1eb"/><path d="M 552.89 311 A 34.56 34.56 0 0 1 587.45 276.44 L 587.45 285.08 A 25.92 25.92 0 0 0 561.53 311" fill="#6cb0d3"/><rect x="587.44" y="276.44" width="34.56" height="34.56" fill="#4d4e4e"/><path d="M 587.44 276.44 A 34.56 34.56 0 0 1 622 311 L 613.36 311 A 25.92 25.92 0 0 0 587.44 285.08" fill="#515a5e"/><rect x="552.89" y="311" width="34.56" height="34.56" fill="#566a74"/><path d="M 552.89 311 A 34.56 34.56 0 0 0 587.45 345.56 L 587.45 336.92 A 25.92 25.92 0 0 1 561.53 311" fill="#365e79"/><rect x="587.44" y="311" width="34.56" height="34.56" fill="#60899f"/><path d="M 587.44 345.56 A 34.56 34.56 0 0 0 622 311 L 613.36 311 A 25.92 25.92 0 0 1 587.44 336.92" fill="#495055"/><rect x="622" y="276.44444444444446" width="69.11111111111111" height="69.11111111111111" fill="#4d4d4d"/><rect x="622" y="276.44" width="34.56" height="34.56" fill="#6598b3"/><path d="M 622 276.44 A 34.56 34.56 0 0 0 656.56 311 L 656.56 276.44" fill="#475158"/><rect x="656.56" y="276.44" width="34.56" height="34.56" fill="#425562"/><path d="M 656.56 311 A 34.56 34.56 0 0 0 691.1199999999999 276.44 L 656.56 276.44" fill="#375e78"/><rect x="622" y="311" width="34.56" height="34.56" fill="#5a7787"/><path d="M 622 345.56 A 34.56 34.56 0 0 1  656.56 311 L 656.56 345.56" fill="#3c596d"/><rect x="656.56" y="311" width="34.56" height="34.56" fill="#495054"/><path d="M 656.56 311 A 34.56 34.56 0 0 1 691.1199999999999 345.56 L 656.56 345.56" fill="#3f5869"/><rect x="691.11" y="276.44" width="69.11" height="69.11" fill="#45535d"/><polygon points="691.11,276.44 760.22,345.55 691.11,345.55" fill="#365e79"/><rect x="760.2222222222223" y="276.44444444444446" width="69.11111111111111" height="69.11111111111111" fill="#4d4d4d"/><rect x="760.22" y="276.44" width="34.56" height="34.56" fill="#73c5f0"/><circle cx="777.5" cy="293.72" r="17.28" fill="#58717f"/><rect x="794.78" y="276.44" width="34.56" height="34.56" fill="#326180"/><rect x="794.78" y="276.44" width="34.56" height="34.56" fill="#425562"/><rect x="760.22" y="311" width="34.56" height="34.56" fill="#6393ac"/><circle cx="777.5" cy="328.28" r="17.28" fill="#4b4e50"/><rect x="794.78" y="311" width="34.56" height="34.56" fill="#34607d"/><rect x="794.78" y="311" width="34.56" height="34.56" fill="#3b5a6f"/><rect x="829.33" y="276.44" width="69.11" height="69.11" fill="#45535d"/><path d="M 829.33 345.55 A 69.11 69.11 0 0 0 898.44 276.44 L 829.33 276.44" fill="#535f65"/><rect x="898.4444444444445" y="276.44444444444446" width="69.11111111111111" height="69.11111111111111" fill="#4d4d4d"/><rect x="898.44" y="276.44" width="34.56" height="34.56" fill="#33607f"/><polygon points="933,276.44 933,311 898.44,311" fill="#4b4e50"/><rect x="933" y="276.44" width="34.56" height="34.56" fill="#60899f"/><polygon points="933,276.44 967.56,276.44 933,311" fill="#628ea6"/><rect x="898.44" y="311" width="34.56" height="34.56" fill="#375d76"/><polygon points="898.44,311 933,311 933,345.56" fill="#435561"/><rect x="933" y="311" width="34.56" height="34.56" fill="#365e79"/><polygon points="933,311 967.56,345.56 933,345.56" fill="#4b4e50"/><rect x="967.5555555555557" y="276.44444444444446" width="69.11111111111111" height="69.11111111111111" fill="#4d4d4d"/><rect x="967.56" y="276.44" width="34.56" height="34.56" fill="#679ebc"/><polygon points="1002.1199999999999,276.44 1002.1199999999999,311 967.56,311" fill="#495055"/><rect x="1002.11" y="276.44" width="34.56" height="34.56" fill="#58717e"/><polygon points="1002.11,276.44 1036.67,311 1002.11,311" fill="#6cb1d5"/><rect x="967.56" y="311" width="34.56" height="34.56" fill="#44545e"/><polygon points="967.56,311 1002.1199999999999,311 967.56,345.56" fill="#3c5a6e"/><rect x="1002.11" y="311" width="34.56" height="34.56" fill="#405766"/><polygon points="1002.11,311 1036.67,311 1036.67,345.56" fill="#4b4f52"/><rect x="1036.67" y="276.44" width="69.11" height="69.11" fill="#495055"/><polygon points="1105.78,276.44 1105.78,345.55 1036.67,345.55" fill="#3f5767"/><rect x="0" y="345.56" width="69.11" height="69.11" fill="#425563"/><rect x="0" y="345.56" width="69.11" height="69.11" fill="#6391aa"/><rect x="69.11111111111111" y="345.55555555555554" width="69.11111111111111" height="69.11111111111111" fill="#4d4d4d"/><rect x="69.11" y="345.56" width="34.56" height="34.56" fill="#6eb7dd"/><path d="M 69.11 380.12 A 34.56 34.56 0 0 1  103.67 345.56 L 103.67 380.12" fill="#475158"/><rect x="103.67" y="345.56" width="34.56" height="34.56" fill="#5e8296"/><path d="M 103.67 345.56 A 34.56 34.56 0 0 1 138.23000000000002 380.12 L 103.67 380.12" fill="#54636b"/><rect x="69.11" y="380.11" width="34.56" height="34.56" fill="#51595d"/><path d="M 69.11 380.11 A 34.56 34.56 0 0 0 103.67 414.67 L 103.67 380.11" fill="#618ca3"/><rect x="103.67" y="380.11" width="34.56" height="34.56" fill="#70bce4"/><path d="M 103.67 414.67 A 34.56 34.56 0 0 0 138.23000000000002 380.11 L 103.67 380.11" fill="#4c4e4e"/><rect x="138.22222222222223" y="345.55555555555554" width="69.11111111111111" height="69.11111111111111" fill="#4d4d4d"/><rect x="138.22" y="345.56" width="34.56" height="34.56" fill="#68a1bf"/><polygon points="172.78,345.56 172.78,380.12 138.22,380.12" fill="#5d8194"/><rect x="172.78" y="345.56" width="34.56" height="34.56" fill="#4d4d4d"/><polygon points="172.78,345.56 207.34,380.12 172.78,380.12" fill="#3e586a"/><rect x="138.22" y="380.11" width="34.56" height="34.56" fill="#34607d"/><polygon points="138.22,380.11 172.78,380.11 172.78,414.67" fill="#375d78"/><rect x="172.78" y="380.11" width="34.56" height="34.56" fill="#72c3ee"/><polygon points="172.78,380.11 207.34,380.11 172.78,414.67" fill="#505558"/><rect x="207.33" y="345.56" width="69.11" height="69.11" fill="#425563"/><polygon points="276.44,345.56 276.44,414.67 207.33,414.67" fill="#355f7b"/><rect x="276.44444444444446" y="345.55555555555554" width="69.11111111111111" height="69.11111111111111" fill="#4d4d4d"/><rect x="276.44" y="345.56" width="34.56" height="34.56" fill="#73c4ef"/><path d="M 276.44 345.56 A 34.56 34.56 0 0 1 311 380.12 L 276.44 380.12" fill="#365e7a"/><rect x="311" y="345.56" width="34.56" height="34.56" fill="#4a4f53"/><path d="M 311 380.12 A 34.56 34.56 0 0 1  345.56 345.56 L 345.56 380.12" fill="#71c1ea"/><rect x="276.44" y="380.11" width="34.56" height="34.56" fill="#556771"/><path d="M 276.44 414.67 A 34.56 34.56 0 0 0 311 380.11 L 276.44 380.11" fill="#59717f"/><rect x="311" y="380.11" width="34.56" height="34.56" fill="#395c73"/><path d="M 311 380.11 A 34.56 34.56 0 0 0 345.56 414.67 L 345.56 380.11" fill="#3b5a6f"/><rect x="345.56" y="345.56" width="69.11" height="69.11" fill="#3e586b"/><rect x="345.56" y="345.56" width="69.11" height="69.11" fill="#475159"/><rect x="414.6666666666667" y="345.55555555555554" width="69.11111111111111" height="69.11111111111111" fill="#4d4d4d"/><rect x="414.67" y="345.56" width="34.56" height="34.56" fill="#6aa7c8"/><circle cx="431.95000000000005" cy="362.84000000000003" r="17.28" fill="#33607e"/><rect x="449.22" y="345.56" width="34.56" height="34.56" fill="#435561"/><rect x="449.22" y="345.56" width="34.56" height="34.56" fill="#6393ad"/><rect x="414.67" y="380.11" width="34.56" height="34.56" fill="#6290a8"/><circle cx="431.95000000000005" cy="397.39" r="17.28" fill="#4d4d4d"/><rect x="449.22" y="380.11" width="34.56" height="34.56" fill="#72c3ee"/><rect x="449.22" y="380.11" width="34.56" height="34.56" fill="#495055"/><rect x="483.7777777777778" y="345.55555555555554" width="69.11111111111111" height="69.11111111111111" fill="#4d4d4d"/><rect x="483.78" y="345.56" width="34.56" height="34.56" fill="#68a3c2"/><path d="M 483.78 345.56 A 34.56 34.56 0 0 1 518.3399999999999 380.12 L 483.78 380.12" fill="#395c74"/><rect x="518.33" y="345.56" width="34.56" height="34.56" fill="#495055"/><path d="M 518.33 380.12 A 34.56 34.56 0 0 1  552.8900000000001 345.56 L 552.8900000000001 380.12" fill="#3d586b"/><rect x="483.78" y="380.11" width="34.56" height="34.56" fill="#75ccfa"/><path d="M 483.78 414.67 A 34.56 34.56 0 0 0 518.3399999999999 380.11 L 483.78 380.11" fill="#68a2c1"/><rect x="518.33" y="380.11" width="34.56" height="34.56" fill="#46525b"/><path d="M 518.33 380.11 A 34.56 34.56 0 0 0 552.8900000000001 414.67 L 552.8900000000001 380.11" fill="#5b7a8a"/><rect x="552.89" y="345.56" width="69.11" height="69.11" fill="#3f5869"/><polygon points="622,345.56 622,414.67 552.89,414.67" fill="#4b4e50"/><rect x="622" y="345.56" width="69.11" height="69.11" fill="#71c0ea"/><path d="M 622 414.67 A 69.11 69.11 0 0 1  691.11 345.56 L 691.11 414.67" fill="#5a7584"/><rect x="691.1111111111111" y="345.55555555555554" width="69.11111111111111" height="69.11111111111111" fill="#4d4d4d"/><rect x="691.11" y="345.56" width="34.56" height="34.56" fill="#385c75"/><polygon points="725.6700000000001,345.56 725.6700000000001,380.12 691.11,380.12" fill="#70bbe3"/><rect x="725.67" y="345.56" width="34.56" height="34.56" fill="#6291a9"/><polygon points="725.67,345.56 760.23,380.12 725.67,380.12" fill="#495056"/><rect x="691.11" y="380.11" width="34.56" height="34.56" fill="#566872"/><polygon points="691.11,380.11 725.6700000000001,380.11 691.11,414.67" fill="#72c1eb"/><rect x="725.67" y="380.11" width="34.56" height="34.56" fill="#73c4ef"/><polygon points="725.67,380.11 760.23,380.11 760.23,414.67" fill="#55666f"/><rect x="760.22" y="345.56" width="69.11" height="69.11" fill="#72c3ee"/><rect x="760.22" y="345.56" width="69.11" height="69.11" fill="#5c7c8e"/><rect x="829.3333333333334" y="345.55555555555554" width="69.11111111111111" height="69.11111111111111" fill="#4d4d4d"/><rect x="829.33" y="345.56" width="34.56" height="34.56" fill="#3c596d"/><circle cx="846.61" cy="362.84000000000003" r="17.28" fill="#345f7c"/><rect x="863.89" y="345.56" width="34.56" height="34.56" fill="#3e586a"/><rect x="863.89" y="345.56" width="34.56" height="34.56" fill="#5a7685"/><rect x="829.33" y="380.11" width="34.56" height="34.56" fill="#566872"/><circle cx="846.61" cy="397.39" r="17.28" fill="#4d4d4e"/><rect x="863.89" y="380.11" width="34.56" height="34.56" fill="#4b4f52"/><rect x="863.89" y="380.11" width="34.56" height="34.56" fill="#71bee7"/><rect x="898.4444444444445" y="345.55555555555554" width="69.11111111111111" height="69.11111111111111" fill="#4d4d4d"/><rect x="898.44" y="345.56" width="34.56" height="34.56" fill="#395c74"/><path d="M 898.44 345.56 A 34.56 34.56 0 0 0 933 380.12 L 933 345.56" fill="#55666f"/><rect x="933" y="345.56" width="34.56" height="34.56" fill="#46525b"/><path d="M 933 380.12 A 34.56 34.56 0 0 0 967.56 345.56 L 933 345.56" fill="#326180"/><rect x="898.44" y="380.11" width="34.56" height="34.56" fill="#3a5b72"/><path d="M 898.44 414.67 A 34.56 34.56 0 0 1  933 380.11 L 933 414.67" fill="#6db2d7"/><rect x="933" y="380.11" width="34.56" height="34.56" fill="#3b5a70"/><path d="M 933 380.11 A 34.56 34.56 0 0 1 967.56 414.67 L 933 414.67" fill="#4d4e4f"/><rect x="967.5555555555557" y="345.55555555555554" width="69.11111111111111" height="69.11111111111111" fill="#4d4d4d"/><rect x="967.56" y="345.56" width="34.56" height="34.56" fill="#75cdfc"/><circle cx="984.8399999999999" cy="362.84000000000003" r="17.28" fill="#385c75"/><rect x="1002.11" y="345.56" width="34.56" height="34.56" fill="#485157"/><rect x="1002.11" y="345.56" width="34.56" height="34.56" fill="#6aa9cb"/><rect x="967.56" y="380.11" width="34.56" height="34.56" fill="#6bacce"/><circle cx="984.8399999999999" cy="397.39" r="17.28" fill="#70bbe3"/><rect x="1002.11" y="380.11" width="34.56" height="34.56" fill="#485158"/><rect x="1002.11" y="380.11" width="34.56" height="34.56" fill="#515b60"/><rect x="1036.67" y="345.56" width="69.11" height="69.11" fill="#74c8f5"/><polygon points="1036.67,345.56 1105.78,345.56 1105.78,414.67" fill="#6598b3"/><rect x="0" y="414.6666666666667" width="69.11111111111111" height="69.11111111111111" fill="#4d4d4d"/><rect x="0" y="414.67" width="34.56" height="34.56" fill="#6fbae1"/><path d="M 0 449.23 A 34.56 34.56 0 0 0 34.56 414.67 L 0 414.67" fill="#535e65"/><rect x="34.56" y="414.67" width="34.56" height="34.56" fill="#336080"/><path d="M 34.56 414.67 A 34.56 34.56 0 0 0 69.12 449.23 L 69.12 414.67" fill="#46525a"/><rect x="0" y="449.22" width="34.56" height="34.56" fill="#365e7a"/><path d="M 0 449.22 A 34.56 34.56 0 0 1 34.56 483.78000000000003 L 0 483.78000000000003" fill="#33607f"/><rect x="34.56" y="449.22" width="34.56" height="34.56" fill="#5d7f91"/><path d="M 34.56 483.78000000000003 A 34.56 34.56 0 0 1  69.12 449.22 L 69.12 483.78000000000003" fill="#4f5355"/><rect x="69.11111111111111" y="414.6666666666667" width="69.11111111111111" height="69.11111111111111" fill="#4d4d4d"/><rect x="69.11" y="414.67" width="34.56" height="34.56" fill="#405665"/><polygon points="103.67,414.67 103.67,449.23 69.11,449.23" fill="#326180"/><rect x="103.67" y="414.67" width="34.56" height="34.56" fill="#75ccfa"/><polygon points="103.67,414.67 138.23000000000002,449.23 103.67,449.23" fill="#5f879c"/><rect x="69.11" y="449.22" width="34.56" height="34.56" fill="#71c0ea"/><polygon points="69.11,449.22 103.67,449.22 69.11,483.78000000000003" fill="#4a4f53"/><rect x="103.67" y="449.22" width="34.56" height="34.56" fill="#495055"/><polygon points="103.67,449.22 138.23000000000002,449.22 138.23000000000002,483.78000000000003" fill="#4c4e4e"/><rect x="138.22222222222223" y="414.6666666666667" width="69.11111111111111" height="69.11111111111111" fill="#4d4d4d"/><rect x="138.22" y="414.67" width="34.56" height="34.56" fill="#495054"/><polygon points="172.78,414.67 172.78,449.23 138.22,449.23" fill="#5d7e90"/><rect x="172.78" y="414.67" width="34.56" height="34.56" fill="#3c5a6e"/><polygon points="172.78,414.67 207.34,449.23 172.78,449.23" fill="#71c0e9"/><rect x="138.22" y="449.22" width="34.56" height="34.56" fill="#3e586a"/><polygon points="138.22,449.22 172.78,449.22 138.22,483.78000000000003" fill="#6496b1"/><rect x="172.78" y="449.22" width="34.56" height="34.56" fill="#4b4e50"/><polygon points="172.78,449.22 207.34,449.22 207.34,483.78000000000003" fill="#3e5869"/><rect x="207.33" y="414.67" width="69.11" height="69.11" fill="#385c75"/><path d="M 207.33 414.67 A 69.11 69.11 0 0 0 276.44 483.78000000000003 L 276.44 414.67" fill="#355f7b"/><rect x="276.44" y="414.67" width="69.11" height="69.11" fill="#69a6c7"/><polygon points="276.44,414.67 345.55,414.67 276.44,483.78000000000003" fill="#44545f"/><rect x="345.56" y="414.67" width="69.11" height="69.11" fill="#72c2ec"/><rect x="345.56" y="414.67" width="69.11" height="69.11" fill="#505558"/><rect x="414.6666666666667" y="414.6666666666667" width="69.11111111111111" height="69.11111111111111" fill="#4d4d4d"/><rect x="414.67" y="414.67" width="34.56" height="34.56" fill="#6fbae1"/><circle cx="431.95000000000005" cy="431.95000000000005" r="17.28" fill="#495055"/><rect x="449.22" y="414.67" width="34.56" height="34.56" fill="#73c6f2"/><rect x="449.22" y="414.67" width="34.56" height="34.56" fill="#5d8194"/><rect x="414.67" y="449.22" width="34.56" height="34.56" fill="#485157"/><circle cx="431.95000000000005" cy="466.5" r="17.28" fill="#326180"/><rect x="449.22" y="449.22" width="34.56" height="34.56" fill="#485056"/><rect x="449.22" y="449.22" width="34.56" height="34.56" fill="#3f5868"/><rect x="483.7777777777778" y="414.6666666666667" width="69.11111111111111" height="69.11111111111111" fill="#4d4d4d"/><rect x="483.78" y="414.67" width="34.56" height="34.56" fill="#355f7b"/><polygon points="518.3399999999999,414.67 518.3399999999999,449.23 483.78,449.23" fill="#4a4f53"/><rect x="518.33" y="414.67" width="34.56" height="34.56" fill="#46525b"/><polygon points="518.33,414.67 552.8900000000001,414.67 518.33,449.23" fill="#75cbf8"/><rect x="483.78" y="449.22" width="34.56" height="34.56" fill="#3a5b72"/><polygon points="483.78,449.22 518.3399999999999,449.22 518.3399999999999,483.78000000000003" fill="#55656e"/><rect x="518.33" y="449.22" width="34.56" height="34.56" fill="#495054"/><polygon points="518.33,449.22 552.8900000000001,483.78000000000003 518.33,483.78000000000003" fill="#3f5768"/><rect x="552.89" y="414.67" width="69.11" height="69.11" fill="#76cefd"/><rect x="552.89" y="414.67" width="69.11" height="69.11" fill="#44535e"/><rect x="622" y="414.6666666666667" width="69.11111111111111" height="69.11111111111111" fill="#4d4d4d"/><rect x="622" y="414.67" width="34.56" height="34.56" fill="#4d4e4e"/><path d="M 622 414.67 A 34.56 34.56 0 0 0 656.56 449.23 L 656.56 414.67" fill="#385d76"/><rect x="656.56" y="414.67" width="34.56" height="34.56" fill="#576c77"/><path d="M 656.56 449.23 A 34.56 34.56 0 0 0 691.1199999999999 414.67 L 656.56 414.67" fill="#3b5a6f"/><rect x="622" y="449.22" width="34.56" height="34.56" fill="#4b4f51"/><path d="M 622 483.78000000000003 A 34.56 34.56 0 0 1  656.56 449.22 L 656.56 483.78000000000003" fill="#485157"/><rect x="656.56" y="449.22" width="34.56" height="34.56" fill="#566b75"/><path d="M 656.56 449.22 A 34.56 34.56 0 0 1 691.1199999999999 483.78000000000003 L 656.56 483.78000000000003" fill="#75cbf9"/><rect x="691.11" y="414.67" width="69.11" height="69.11" fill="#3c5a6f"/><rect x="691.11" y="414.67" width="69.11" height="69.11" fill="#5a7583"/><rect x="760.22" y="414.67" width="69.11" height="69.11" fill="#3f5868"/><rect x="760.22" y="414.67" width="69.11" height="69.11" fill="#6393ac"/><rect x="829.33" y="414.67" width="69.11" height="69.11" fill="#495055"/><rect x="829.33" y="414.67" width="69.11" height="69.11" fill="#44545e"/><rect x="898.44" y="414.67" width="69.11" height="69.11" fill="#6392ab"/><rect x="898.44" y="414.67" width="69.11" height="69.11" fill="#71c1eb"/><rect x="967.56" y="414.67" width="69.11" height="69.11" fill="#46525b"/><rect x="967.56" y="414.67" width="69.11" height="69.11" fill="#3c596d"/><rect x="1036.67" y="414.67" width="69.11" height="69.11" fill="#355f7c"/><polygon points="1036.67,414.67 1105.78,483.78000000000003 1036.67,483.78000000000003" fill="#5e8396"/><rect x="0" y="483.78" width="69.11" height="69.11" fill="#355f7b"/><polygon points="0,483.78 69.11,483.78 69.11,552.89" fill="#3e5869"/><rect x="69.11" y="483.78" width="69.11" height="69.11" fill="#6eb4da"/><polygon points="69.11,483.78 138.22,483.78 138.22,552.89" fill="#74c9f5"/><rect x="138.22222222222223" y="483.7777777777778" width="69.11111111111111" height="69.11111111111111" fill="#4d4d4d"/><rect x="138.22" y="483.78" width="34.56" height="34.56" fill="#6fb8de"/><path d="M 138.22 518.3399999999999 A 34.56 34.56 0 0 0 172.78 483.78 L 138.22 483.78" fill="#485156"/><rect x="172.78" y="483.78" width="34.56" height="34.56" fill="#415664"/><path d="M 172.78 483.78 A 34.56 34.56 0 0 0 207.34 518.3399999999999 L 207.34 483.78" fill="#495055"/><rect x="138.22" y="518.33" width="34.56" height="34.56" fill="#385d76"/><path d="M 138.22 518.33 A 34.56 34.56 0 0 1 172.78 552.8900000000001 L 138.22 552.8900000000001" fill="#628ea6"/><rect x="172.78" y="518.33" width="34.56" height="34.56" fill="#58707d"/><path d="M 172.78 552.8900000000001 A 34.56 34.56 0 0 1  207.34 518.33 L 207.34 552.8900000000001" fill="#4b4e50"/><rect x="207.33333333333334" y="483.7777777777778" width="69.11111111111111" height="69.11111111111111" fill="#4d4d4d"/><rect x="207.33" y="483.78" width="34.56" height="34.56" fill="#375d77"/><circle cx="224.61" cy="501.05999999999995" r="17.28" fill="#33607f"/><rect x="241.89" y="483.78" width="34.56" height="34.56" fill="#5d7e90"/><rect x="241.89" y="483.78" width="34.56" height="34.56" fill="#6babcd"/><rect x="207.33" y="518.33" width="34.56" height="34.56" fill="#669bb7"/><circle cx="224.61" cy="535.61" r="17.28" fill="#475259"/><rect x="241.89" y="518.33" width="34.56" height="34.56" fill="#51585c"/><rect x="241.89" y="518.33" width="34.56" height="34.56" fill="#3e586a"/><rect x="276.44" y="483.78" width="69.11" height="69.11" fill="#4e5153"/><path d="M 276.44 483.78 A 69.11 69.11 0 0 1  345.55 552.89 L 276.44 483.78 A 69.11 69.11 0 0 0 345.55 552.89" fill="#4c4e50"/><rect x="345.55555555555554" y="483.7777777777778" width="69.11111111111111" height="69.11111111111111" fill="#4d4d4d"/><rect x="345.56" y="483.78" width="34.56" height="34.56" fill="#355f7b"/><path d="M 345.56 483.78 A 34.56 34.56 0 0 1 380.12 518.3399999999999 L 345.56 518.3399999999999" fill="#5f8599"/><rect x="380.11" y="483.78" width="34.56" height="34.56" fill="#45535c"/><path d="M 380.11 518.3399999999999 A 34.56 34.56 0 0 1  414.67 483.78 L 414.67 518.3399999999999" fill="#3d596c"/><rect x="345.56" y="518.33" width="34.56" height="34.56" fill="#5e8397"/><path d="M 345.56 552.8900000000001 A 34.56 34.56 0 0 0 380.12 518.33 L 345.56 518.33" fill="#495055"/><rect x="380.11" y="518.33" width="34.56" height="34.56" fill="#33607e"/><path d="M 380.11 518.33 A 34.56 34.56 0 0 0 414.67 552.8900000000001 L 414.67 518.33" fill="#5c7c8e"/><rect x="414.67" y="483.78" width="69.11" height="69.11" fill="#5a7786"/><polygon points="414.67,483.78 483.78000000000003,483.78 414.67,552.89" fill="#5f869b"/><rect x="483.7777777777778" y="483.7777777777778" width="69.11111111111111" height="69.11111111111111" fill="#4d4d4d"/><rect x="483.78" y="483.78" width="34.56" height="34.56" fill="#385c74"/><polygon points="518.3399999999999,483.78 518.3399999999999,518.3399999999999 483.78,518.3399999999999" fill="#576d78"/><rect x="518.33" y="483.78" width="34.56" height="34.56" fill="#597381"/><polygon points="518.33,483.78 552.8900000000001,483.78 518.33,518.3399999999999" fill="#6db2d7"/><rect x="483.78" y="518.33" width="34.56" height="34.56" fill="#4d4d4e"/><polygon points="483.78,518.33 518.3399999999999,518.33 518.3399999999999,552.8900000000001" fill="#475259"/><rect x="518.33" y="518.33" width="34.56" height="34.56" fill="#6394ae"/><polygon points="518.33,518.33 552.8900000000001,552.8900000000001 518.33,552.8900000000001" fill="#5c7d8e"/><rect x="552.89" y="483.78" width="69.11" height="69.11" fill="#3c596d"/><polygon points="622,483.78 622,552.89 552.89,552.89" fill="#3f5767"/><rect x="622" y="483.78" width="69.11" height="69.11" fill="#5a7583"/><rect x="622" y="483.78" width="69.11" height="69.11" fill="#3d596c"/><rect x="691.1111111111111" y="483.7777777777778" width="69.11111111111111" height="69.11111111111111" fill="#4d4d4d"/><rect x="691.11" y="483.78" width="34.56" height="34.56" fill="#43545f"/><path d="M 691.11 518.3399999999999 A 34.56 34.56 0 0 1  725.6700000000001 483.78 L 725.6700000000001 518.3399999999999" fill="#72c2ed"/><rect x="725.67" y="483.78" width="34.56" height="34.56" fill="#536066"/><path d="M 725.67 483.78 A 34.56 34.56 0 0 1 760.23 518.3399999999999 L 725.67 518.3399999999999" fill="#485156"/><rect x="691.11" y="518.33" width="34.56" height="34.56" fill="#3d596b"/><path d="M 691.11 518.33 A 34.56 34.56 0 0 0 725.6700000000001 552.8900000000001 L 725.6700000000001 518.33" fill="#3d596c"/><rect x="725.67" y="518.33" width="34.56" height="34.56" fill="#6babcd"/><path d="M 725.67 552.8900000000001 A 34.56 34.56 0 0 0 760.23 518.33 L 725.67 518.33" fill="#597380"/><rect x="760.2222222222223" y="483.7777777777778" width="69.11111111111111" height="69.11111111111111" fill="#4d4d4d"/><rect x="760.22" y="483.78" width="34.56" height="34.56" fill="#365e79"/><path d="M 760.22 483.78 A 34.56 34.56 0 0 0 794.78 518.3399999999999 L 794.78 483.78" fill="#365e79"/><rect x="794.78" y="483.78" width="34.56" height="34.56" fill="#3a5b71"/><path d="M 794.78 518.3399999999999 A 34.56 34.56 0 0 0 829.3399999999999 483.78 L 794.78 483.78" fill="#608aa0"/><rect x="760.22" y="518.33" width="34.56" height="34.56" fill="#72c3ee"/><path d="M 760.22 552.8900000000001 A 34.56 34.56 0 0 1  794.78 518.33 L 794.78 552.8900000000001" fill="#43545f"/><rect x="794.78" y="518.33" width="34.56" height="34.56" fill="#3c596d"/><path d="M 794.78 518.33 A 34.56 34.56 0 0 1 829.3399999999999 552.8900000000001 L 794.78 552.8900000000001" fill="#3b5a6f"/><rect x="829.3333333333334" y="483.7777777777778" width="69.11111111111111" height="69.11111111111111" fill="#4d4d4d"/><rect x="829.33" y="483.78" width="34.56" height="34.56" fill="#68a3c2"/><path d="M 829.33 518.3399999999999 A 34.56 34.56 0 0 0 863.8900000000001 483.78 L 829.33 483.78" fill="#6db2d7"/><rect x="863.89" y="483.78" width="34.56" height="34.56" fill="#75cbf8"/><path d="M 863.89 483.78 A 34.56 34.56 0 0 0 898.45 518.3399999999999 L 898.45 483.78" fill="#4a4f52"/><rect x="829.33" y="518.33" width="34.56" height="34.56" fill="#375d77"/><path d="M 829.33 518.33 A 34.56 34.56 0 0 1 863.8900000000001 552.8900000000001 L 829.33 552.8900000000001" fill="#73c5f0"/><rect x="863.89" y="518.33" width="34.56" height="34.56" fill="#326181"/><path d="M 863.89 552.8900000000001 A 34.56 34.56 0 0 1  898.45 518.33 L 898.45 552.8900000000001" fill="#75cdfc"/><rect x="898.44" y="483.78" width="69.11" height="69.11" fill="#33607f"/><polygon points="898.44,483.78 967.5500000000001,552.89 898.44,552.89" fill="#5b7989"/><rect x="967.56" y="483.78" width="69.11" height="69.11" fill="#495054"/><polygon points="967.56,483.78 1036.6699999999998,552.89 967.56,552.89" fill="#6393ac"/><rect x="1036.67" y="483.78" width="69.11" height="69.11" fill="#669dba"/><rect x="1036.67" y="483.78" width="69.11" height="69.11" fill="#365e79"/><rect x="0" y="552.89" width="69.11" height="69.11" fill="#69a5c4"/><path d="M 0 622 A 69.11 69.11 0 0 1  69.11 552.89 L 69.11 622" fill="#536067"/><rect x="69.11" y="552.89" width="69.11" height="69.11" fill="#54646c"/><path d="M 69.11 552.89 A 69.11 69.11 0 0 1 138.22 622 L 69.11 622" fill="#3b5b70"/><rect x="138.22" y="552.89" width="69.11" height="69.11" fill="#485056"/><polygon points="138.22,552.89 207.32999999999998,552.89 207.32999999999998,622" fill="#34607d"/><rect x="207.33" y="552.89" width="69.11" height="69.11" fill="#69a6c6"/><path d="M 207.33 552.89 A 69.11 69.11 0 0 0 276.44 622 L 276.44 552.89" fill="#5b7888"/><rect x="276.44444444444446" y="552.8888888888889" width="69.11111111111111" height="69.11111111111111" fill="#4d4d4d"/><rect x="276.44" y="552.89" width="34.56" height="34.56" fill="#5c7d8f"/><polygon points="311,552.89 311,587.45 276.44,587.45" fill="#345f7d"/><rect x="311" y="552.89" width="34.56" height="34.56" fill="#46525a"/><polygon points="311,552.89 345.56,552.89 311,587.45" fill="#45535c"/><rect x="276.44" y="587.44" width="34.56" height="34.56" fill="#3e586a"/><polygon points="276.44,587.44 311,587.44 311,622" fill="#3f5869"/><rect x="311" y="587.44" width="34.56" height="34.56" fill="#628fa7"/><polygon points="311,587.44 345.56,622 311,622" fill="#405766"/><rect x="345.55555555555554" y="552.8888888888889" width="69.11111111111111" height="69.11111111111111" fill="#4d4d4d"/><rect x="345.56" y="552.89" width="34.56" height="34.56" fill="#525c62"/><polygon points="380.12,552.89 380.12,587.45 345.56,587.45" fill="#6aa8c9"/><rect x="380.11" y="552.89" width="34.56" height="34.56" fill="#355f7c"/><polygon points="380.11,552.89 414.67,587.45 380.11,587.45" fill="#385d76"/><rect x="345.56" y="587.44" width="34.56" height="34.56" fill="#74c7f3"/><polygon points="345.56,587.44 380.12,587.44 345.56,622" fill="#566973"/><rect x="380.11" y="587.44" width="34.56" height="34.56" fill="#59727f"/><polygon points="380.11,587.44 414.67,587.44 414.67,622" fill="#597380"/><rect x="414.67" y="552.89" width="69.11" height="69.11" fill="#45535c"/><rect x="414.67" y="552.89" width="69.11" height="69.11" fill="#4a4f53"/><rect x="483.78" y="552.89" width="69.11" height="69.11" fill="#58717e"/><path d="M 483.78 622 A 69.11 69.11 0 0 0 552.89 552.89 L 483.78 552.89" fill="#6aa8c9"/><rect x="552.8888888888889" y="552.8888888888889" width="69.11111111111111" height="69.11111111111111" fill="#4d4d4d"/><rect x="552.89" y="552.89" width="34.56" height="34.56" fill="#71bfe8"/><path d="M 552.89 587.45 A 34.56 34.56 0 0 0 587.45 552.89 L 552.89 552.89" fill="#68a3c2"/><rect x="587.44" y="552.89" width="34.56" height="34.56" fill="#375e78"/><path d="M 587.44 552.89 A 34.56 34.56 0 0 0 622 587.45 L 622 552.89" fill="#3d596c"/><rect x="552.89" y="587.44" width="34.56" height="34.56" fill="#3f5869"/><path d="M 552.89 587.44 A 34.56 34.56 0 0 1 587.45 622 L 552.89 622" fill="#5c7d8e"/><rect x="587.44" y="587.44" width="34.56" height="34.56" fill="#51585c"/><path d="M 587.44 622 A 34.56 34.56 0 0 1  622 587.44 L 622 622" fill="#355f7b"/><rect x="622" y="552.8888888888889" width="69.11111111111111" height="69.11111111111111" fill="#4d4d4d"/><rect x="622" y="552.89" width="34.56" height="34.56" fill="#3d596c"/><polygon points="656.56,552.89 656.56,587.45 622,587.45" fill="#6eb5db"/><rect x="656.56" y="552.89" width="34.56" height="34.56" fill="#576d78"/><polygon points="656.56,552.89 691.1199999999999,587.45 656.56,587.45" fill="#3c5a6e"/><rect x="622" y="587.44" width="34.56" height="34.56" fill="#73c5f0"/><polygon points="622,587.44 656.56,587.44 622,622" fill="#3e5869"/><rect x="656.56" y="587.44" width="34.56" height="34.56" fill="#425563"/><polygon points="656.56,587.44 691.1199999999999,587.44 691.1199999999999,622" fill="#515a5f"/><rect x="691.1111111111111" y="552.8888888888889" width="69.11111111111111" height="69.11111111111111" fill="#4d4d4d"/><rect x="691.11" y="552.89" width="34.56" height="34.56" fill="#4d4f4f"/><polygon points="725.6700000000001,552.89 725.6700000000001,587.45 691.11,587.45" fill="#566973"/><rect x="725.67" y="552.89" width="34.56" height="34.56" fill="#6394ad"/><polygon points="725.67,552.89 760.23,587.45 725.67,587.45" fill="#485156"/><rect x="691.11" y="587.44" width="34.56" height="34.56" fill="#5c7c8d"/><polygon points="691.11,587.44 725.6700000000001,587.44 691.11,622" fill="#566a74"/><rect x="725.67" y="587.44" width="34.56" height="34.56" fill="#44535e"/><polygon points="725.67,587.44 760.23,587.44 760.23,622" fill="#60889e"/><rect x="760.2222222222223" y="552.8888888888889" width="69.11111111111111" height="69.11111111111111" fill="#4d4d4d"/><rect x="760.22" y="552.89" width="34.56" height="34.56" fill="#385c75"/><path d="M 760.22 587.45 A 34.56 34.56 0 0 1  794.78 552.89 L 794.78 587.45" fill="#5c7d8e"/><rect x="794.78" y="552.89" width="34.56" height="34.56" fill="#4a5054"/><path d="M 794.78 552.89 A 34.56 34.56 0 0 1 829.3399999999999 587.45 L 794.78 587.45" fill="#3c596d"/><rect x="760.22" y="587.44" width="34.56" height="34.56" fill="#6db3d8"/><path d="M 760.22 587.44 A 34.56 34.56 0 0 0 794.78 622 L 794.78 587.44" fill="#485157"/><rect x="794.78" y="587.44" width="34.56" height="34.56" fill="#33607e"/><path d="M 794.78 622 A 34.56 34.56 0 0 0 829.3399999999999 587.44 L 794.78 587.44" fill="#72c4ef"/><rect x="829.33" y="552.89" width="69.11" height="69.11" fill="#525e64"/><rect x="829.33" y="552.89" width="69.11" height="69.11" fill="#6599b4"/><rect x="898.4444444444445" y="552.8888888888889" width="69.11111111111111" height="69.11111111111111" fill="#4d4d4d"/><rect x="898.44" y="552.89" width="34.56" height="34.56" fill="#4b4e51"/><polygon points="933,552.89 933,587.45 898.44,587.45" fill="#5d7f92"/><rect x="933" y="552.89" width="34.56" height="34.56" fill="#3e586a"/><polygon points="933,552.89 967.56,552.89 933,587.45" fill="#5e8295"/><rect x="898.44" y="587.44" width="34.56" height="34.56" fill="#45535d"/><polygon points="898.44,587.44 933,587.44 933,622" fill="#3f5767"/><rect x="933" y="587.44" width="34.56" height="34.56" fill="#4e5153"/><polygon points="933,587.44 967.56,622 933,622" fill="#6496b1"/><rect x="967.56" y="552.89" width="69.11" height="69.11" fill="#54636c"/><rect x="967.56" y="552.89" width="69.11" height="69.11" fill="#6fb8de"/><rect x="1036.67" y="552.89" width="69.11" height="69.11" fill="#69a5c4"/><polygon points="1036.67,552.89 1105.78,622 1036.67,622" fill="#6494ae"/></g></svg>