<?xml version="1.0" standalone="no"?><svg xmlns:xlink="http://www.w3.org/1999/xlink" xmlns="http://www.w3.org/2000/svg" viewBox="0 0 100 99.99999999999999" preserveAspectRatio="none"><g transform="scale(0.16393442622950818)"><rect x="0" y="0" width="610" height="610" fill="#ffffff"/><rect x="0" y="0" width="610" height="610" fill="#ffffff"/><rect x="0" y="0" width="305" height="305" fill="#727272"/><path d="M 0 305 A 305 305 0 0 0 305 0 L 0 0" fill="#8b8b8b"/><rect x="305" y="0" width="305" height="305" fill="#959595"/><path d="M 305 0 A 305 305 0 0 0 610 305 L 610 0" fill="#f1f1f1"/><rect x="0" y="305" width="305" height="305" fill="#9b9b9b"/><path d="M 0 305 A 305 305 0 0 1 305 610 L 0 610" fill="#f5f5f5"/><rect x="305" y="305" width="305" height="305" fill="#f3f3f3"/><path d="M 305 610 A 305 305 0 0 1  610 305 L 610 610" fill="#eeeeee"/></g></svg>