<?xml version="1.0" standalone="no"?><svg xmlns:xlink="http://www.w3.org/1999/xlink" xmlns="http://www.w3.org/2000/svg" viewBox="0 0 100 99.99999999999999" preserveAspectRatio="none"><g transform="scale(0.16393442622950818)"><rect x="0" y="0" width="610" height="610" fill="#ffffff"/><rect x="0" y="0" width="610" height="610" fill="#ffffff"/><rect x="0" y="0" width="305" height="305" fill="#f9f9f9"/><path d="M 0 0 A 305 305 0 0 0 305 305 L 305 0" fill="#fefefe"/><rect x="305" y="0" width="305" height="305" fill="#fafafa"/><path d="M 305 305 A 305 305 0 0 0 610 0 L 305 0" fill="#ededed"/><rect x="0" y="305" width="305" height="305" fill="#dcdcdc"/><path d="M 0 610 A 305 305 0 0 1  305 305 L 305 610" fill="#e7e7e7"/><rect x="305" y="305" width="305" height="305" fill="#ababab"/><path d="M 305 305 A 305 305 0 0 1 610 610 L 305 610" fill="#9c9c9c"/></g></svg>