<?xml version="1.0" standalone="no"?><svg xmlns:xlink="http://www.w3.org/1999/xlink" xmlns="http://www.w3.org/2000/svg" viewBox="0 0 100 99.99999999999999" preserveAspectRatio="none"><g transform="scale(0.16393442622950818)"><rect x="0" y="0" width="610" height="610" fill="#ffffff"/><rect x="0" y="0" width="610" height="610" fill="#ffffff"/><rect x="0" y="0" width="305" height="305" fill="#838383"/><path d="M 0 305 A 305 305 0 0 1 305 0 L 305 76.25 A 228.75 228.75 0 0 0 76.25 305" fill="#f9f9f9"/><rect x="305" y="0" width="305" height="305" fill="#9b9b9b"/><path d="M 305 0 A 305 305 0 0 1 610 305 L 533.75 305 A 228.75 228.75 0 0 0 305 76.25" fill="#eeeeee"/><rect x="0" y="305" width="305" height="305" fill="#9e9e9e"/><path d="M 0 305 A 305 305 0 0 0 305 610 L 305 533.75 A 228.75 228.75 0 0 1 76.25 305" fill="#fafafa"/><rect x="305" y="305" width="305" height="305" fill="#808080"/><path d="M 305 610 A 305 305 0 0 0 610 305 L 533.75 305 A 228.75 228.75 0 0 1 305 533.75" fill="#767676"/></g></svg>